<?xml version="1.0" encoding="UTF-8"?>
<svg width="470px" height="312px" viewBox="0 0 470 312" version="1.1" xmlns="http://www.w3.org/2000/svg" xmlns:xlink="http://www.w3.org/1999/xlink">
    <!-- Generator: Sketch 43.2 (39069) - http://www.bohemiancoding.com/sketch -->
    <title>Artboard</title>
    <desc>Created with Sketch.</desc>
    <defs></defs>
    <g id="Page-1" stroke="none" stroke-width="1" fill="none" fill-rule="evenodd">
        <rect id="Rectangle-4" fill="#1D1D1D" x="0" y="0" width="470.114655" height="312"></rect>
        <g id="Artboard">
            <path d="M3.28893643,199.471015 C3.28893643,199.471015 26.6200341,129.292022 38.8760699,129.292022 C51.1321057,129.292022 50.4029154,152.982607 61.4229494,152.982607 C72.4429834,152.982607 74.9387409,70.5449053 95.0440498,70.5449053 C115.149359,70.5449053 126.188502,89.5098556 136.557623,89.5098556 C146.926744,89.5098556 158.149286,74.3304488 171.64738,79.4716334 C185.145475,84.612818 196.469646,142.783859 215.152998,142.783859 C233.836349,142.783859 259.776353,43.2458587 280.904163,43.2458587 C302.031974,43.2458587 321.283839,64.2235591 335.28636,64.2235591 C349.28888,64.2235591 383.37834,19.938735 383.37834,19.938735" id="Path-2" stroke="#23F4BD"></path>
            <path d="M1.34571545,201.960755 C1.34571545,201.960755 26.6200341,129.292022 38.8760699,129.292022 C51.1321057,129.292022 50.4029154,152.982607 61.4229494,152.982607 C72.4429834,152.982607 74.9387409,70.5449053 95.0440498,70.5449053 C115.149359,70.5449053 126.188502,89.5098556 136.557623,89.5098556 C146.926744,89.5098556 158.149286,74.3304488 171.64738,79.4716334 C185.145475,84.612818 196.469646,142.783859 215.152998,142.783859 C233.836349,142.783859 259.776353,43.2458587 280.904163,43.2458587 C302.031974,43.2458587 321.283839,64.2235591 335.28636,64.2235591 C349.28888,64.2235591 383.37834,19.938735 383.37834,19.938735 L383.37834,311.666404 L1.34571545,311.666404 L1.34571545,201.960755 Z" id="Path-2-Copy" fill="#23F4BD" opacity="0.0964673913"></path>
            <circle id="Oval-4" fill="#23F4BD" cx="383" cy="20" r="3"></circle>
        </g>
    </g>
</svg>